<?xml version="1.0" standalone="no"?>
<!DOCTYPE svg PUBLIC "-//W3C//DTD SVG 20010904//EN"
 "http://www.w3.org/TR/2001/REC-SVG-20010904/DTD/svg10.dtd">
<svg version="1.0" xmlns="http://www.w3.org/2000/svg"
 width="1205.000000pt" height="226.000000pt" viewBox="0 0 1205.000000 226.000000"
 preserveAspectRatio="xMidYMid meet">

<g transform="translate(0.000000,226.000000) scale(0.100000,-0.100000)"
fill="#000000" stroke="none">
<path d="M4360 1360 l0 -900 110 0 110 0 0 900 0 900 -110 0 -110 0 0 -900z"/>
<path d="M7720 1945 l0 -314 -46 44 c-25 24 -75 59 -112 77 -60 30 -77 33
-173 36 -124 5 -187 -7 -276 -49 -131 -63 -225 -191 -274 -374 -30 -111 -33
-375 -5 -480 69 -264 242 -424 486 -450 140 -14 272 28 360 116 27 27 52 49
55 49 3 0 5 -31 5 -70 l0 -70 100 0 100 0 0 900 0 900 -110 0 -110 0 0 -315z
m-198 -367 c142 -84 205 -213 215 -438 10 -254 -60 -415 -218 -496 -71 -36
-171 -39 -240 -7 -90 41 -174 136 -209 238 -40 115 -44 328 -10 455 26 97 81
180 154 229 62 43 94 51 182 48 66 -3 89 -8 126 -29z"/>
<path d="M506 1774 c-152 -34 -263 -109 -316 -214 -25 -50 -64 -160 -57 -165
5 -5 159 -25 185 -25 24 0 31 8 56 65 55 126 144 177 314 176 99 0 166 -17
223 -57 53 -36 78 -81 90 -159 15 -94 5 -107 -109 -134 -49 -12 -170 -32 -268
-46 -215 -31 -290 -52 -370 -103 -67 -43 -113 -105 -140 -184 -24 -74 -17
-226 16 -292 58 -121 173 -186 355 -202 151 -13 310 29 443 117 97 64 89 66
117 -33 l16 -58 114 0 c63 0 115 4 115 9 0 5 -9 29 -20 54 -37 82 -42 146 -48
582 l-7 430 -33 68 c-27 55 -44 75 -85 102 -98 65 -151 77 -347 81 -131 3
-192 0 -244 -12z m492 -776 c-3 -96 -8 -122 -30 -170 -53 -114 -174 -198 -317
-221 -57 -8 -81 -7 -138 7 -121 29 -187 106 -180 208 6 109 89 173 264 203
183 31 302 55 340 69 68 24 66 28 61 -96z"/>
<path d="M1998 1775 c-60 -16 -110 -47 -175 -109 l-53 -49 0 77 0 76 -100 0
-100 0 0 -885 0 -885 110 0 110 0 0 291 0 291 46 -41 c147 -129 376 -143 571
-35 124 69 218 201 265 371 18 66 22 105 21 248 0 156 -2 178 -26 258 -48 157
-112 253 -215 323 -90 62 -170 84 -301 83 -58 0 -127 -7 -153 -14z m249 -180
c58 -29 141 -112 171 -171 76 -149 76 -458 1 -606 -32 -63 -115 -145 -178
-175 -74 -37 -172 -38 -244 -3 -105 50 -185 159 -213 289 -18 85 -18 267 1
354 28 132 125 264 230 313 71 34 163 33 232 -1z"/>
<path d="M3398 1775 c-60 -16 -110 -47 -175 -109 l-53 -49 0 77 0 76 -100 0
-100 0 0 -885 0 -885 110 0 110 0 0 291 0 291 46 -41 c147 -129 376 -143 571
-35 124 69 218 201 265 371 18 66 22 105 21 248 0 156 -2 178 -26 258 -48 157
-112 253 -215 323 -90 62 -170 84 -301 83 -58 0 -127 -7 -153 -14z m249 -180
c58 -29 141 -112 171 -171 76 -149 76 -458 1 -606 -32 -63 -115 -145 -178
-175 -74 -37 -172 -38 -244 -3 -105 50 -185 159 -213 289 -18 85 -18 267 0
352 29 135 124 265 231 315 71 34 163 33 232 -1z"/>
<path d="M5853 1776 c-198 -48 -351 -207 -410 -426 -26 -94 -25 -398 0 -490
61 -214 199 -352 407 -407 77 -20 270 -23 346 -6 194 45 318 149 388 327 20
50 25 71 16 76 -7 4 -42 10 -79 14 -36 4 -82 9 -102 12 -36 6 -36 6 -68 -60
-45 -91 -121 -159 -208 -186 -78 -24 -119 -25 -198 -5 -107 28 -194 102 -250
213 -26 52 -60 196 -49 213 3 5 211 9 491 9 l486 0 -8 112 c-14 214 -65 349
-174 459 -72 72 -154 120 -248 144 -70 18 -266 19 -340 1z m289 -181 c98 -33
185 -126 218 -232 11 -36 20 -78 20 -94 l0 -29 -361 0 -362 0 5 48 c10 102 91
224 187 280 86 50 197 61 293 27z"/>
<path d="M9326 1774 c-152 -34 -263 -109 -316 -214 -25 -50 -64 -160 -57 -165
5 -5 159 -25 185 -25 24 0 31 8 56 65 55 126 144 177 314 176 99 0 166 -17
223 -57 53 -36 78 -81 90 -159 15 -94 5 -107 -109 -134 -49 -12 -170 -32 -268
-46 -215 -31 -290 -52 -370 -103 -67 -43 -113 -105 -140 -184 -24 -74 -17
-226 16 -292 58 -121 173 -186 355 -202 151 -13 310 29 443 117 97 64 89 66
117 -33 l16 -58 114 0 c63 0 115 4 115 9 0 5 -9 29 -20 54 -37 82 -42 146 -48
582 l-7 430 -33 68 c-27 55 -44 75 -85 102 -98 65 -151 77 -347 81 -131 3
-192 0 -244 -12z m492 -776 c-3 -96 -8 -122 -30 -170 -53 -114 -174 -198 -317
-221 -57 -8 -81 -7 -138 7 -121 29 -187 106 -180 208 6 109 89 173 264 203
183 31 302 55 340 69 68 24 66 28 61 -96z"/>
<path d="M10707 1775 c-227 -62 -368 -264 -396 -565 -22 -235 37 -447 165
-588 98 -110 212 -156 384 -157 77 0 119 5 160 19 61 21 144 71 174 105 35 39
39 26 33 -101 -6 -139 -22 -191 -84 -267 -70 -85 -220 -128 -357 -102 -114 21
-190 78 -215 161 -12 42 -1 38 -180 65 l-44 7 6 -69 c9 -114 65 -211 152 -265
28 -16 57 -18 361 -18 l330 0 45 28 c91 59 155 155 186 279 14 59 17 161 20
766 l4 697 -100 0 -101 0 0 -71 0 -71 -34 30 c-115 101 -200 132 -353 131 -59
0 -130 -7 -156 -14z m298 -189 c192 -89 281 -325 231 -607 -29 -161 -124 -280
-257 -320 -126 -38 -234 -5 -332 101 -82 88 -117 200 -117 370 0 221 77 377
223 450 79 40 176 42 252 6z"/>
<path d="M4930 1110 l0 -650 110 0 110 0 0 650 0 650 -110 0 -110 0 0 -650z"/>
<path d="M11790 1110 l0 -650 110 0 110 0 0 650 0 650 -110 0 -110 0 0 -650z"/>
</g>
</svg>
