<svg version="1.0" xmlns="http://www.w3.org/2000/svg"
 width="272.000000pt" height="296.000000pt" viewBox="0 0 272.000000 296.000000"
 preserveAspectRatio="xMidYMid meet">
<g transform="translate(0.000000,296.000000) scale(0.100000,-0.100000)">
<path d="M1396 2892 c-9 -18 -16 -34 -17 -37 0 -9 -56 -124 -73 -150 -9 -14
-14 -25 -11 -25 3 0 -6 -22 -20 -50 -14 -27 -25 -53 -26 -57 0 -5 -7 -18 -15
-30 -8 -13 -11 -23 -8 -23 4 0 -1 -9 -11 -20 -10 -11 -15 -20 -11 -20 3 0 -3
-19 -15 -42 -12 -24 -21 -44 -20 -46 1 -1 -11 -26 -26 -55 -15 -28 -27 -54
-28 -57 -2 -24 -69 -149 -77 -144 -6 4 -8 -1 -6 -12 3 -11 -6 -40 -19 -66 -13
-27 -23 -50 -23 -53 0 -3 -7 -20 -17 -38 -9 -17 -17 -34 -18 -37 -2 -17 -131
-298 -143 -312 -8 -10 -12 -18 -8 -18 3 0 -5 -22 -19 -50 -14 -27 -25 -52 -25
-55 0 -3 -7 -19 -15 -35 -8 -16 -15 -31 -14 -32 1 -2 -8 -23 -21 -48 -13 -25
-22 -46 -21 -48 1 -1 -12 -29 -29 -62 -17 -33 -30 -62 -30 -65 0 -3 -25 -56
-57 -118 -31 -61 -58 -118 -59 -124 -1 -7 -13 -33 -27 -57 -28 -50 -24 -66 7
-37 12 11 26 21 31 22 6 1 42 18 82 36 39 19 78 36 85 37 7 2 30 11 52 20 21
9 41 15 44 12 3 -3 11 -1 19 5 7 6 13 8 13 4 0 -4 7 -2 15 5 9 7 18 10 22 7 3
-4 12 -2 20 4 7 6 13 8 13 4 0 -4 7 -2 15 5 8 7 21 10 30 7 8 -4 17 -1 21 4 3
6 16 8 29 5 12 -3 25 -2 29 1 4 4 22 6 41 5 18 -2 36 2 40 8 4 6 20 8 39 5 23
-5 36 -2 45 9 8 9 11 16 7 16 -4 0 0 13 9 30 8 16 15 32 15 35 0 3 7 19 15 35
8 16 16 33 16 37 0 5 7 18 15 31 8 12 12 22 9 22 -3 0 1 13 10 30 8 16 15 31
14 32 -2 2 4 14 11 28 8 14 15 30 16 35 1 6 17 42 35 80 18 39 31 75 30 81 0
6 6 17 15 25 14 11 19 10 34 -11 10 -14 18 -27 17 -30 -1 -3 4 -15 11 -27 7
-13 10 -23 7 -23 -3 0 2 -11 11 -24 8 -14 15 -27 15 -31 -1 -3 6 -19 14 -35 8
-16 15 -32 15 -35 0 -3 7 -19 15 -35 8 -16 16 -33 16 -37 1 -5 10 -25 20 -45
16 -32 62 -144 64 -158 1 -3 11 -24 23 -48 12 -23 20 -42 16 -42 -4 0 -2 -6 4
-12 6 -7 11 -16 11 -21 0 -4 8 -21 16 -37 9 -17 13 -30 10 -30 -3 0 2 -11 11
-24 8 -14 15 -27 15 -31 -1 -3 6 -19 14 -35 22 -43 6 -61 -32 -37 -7 5 -18 5
-23 2 -6 -4 -17 -2 -24 4 -7 6 -20 9 -29 5 -8 -3 -18 -1 -22 5 -3 6 -17 8 -30
5 -12 -3 -26 -1 -30 5 -4 7 -21 9 -44 5 -24 -4 -41 -2 -45 5 -9 14 -242 15
-251 1 -3 -5 -23 -7 -45 -5 -22 3 -42 0 -45 -5 -4 -6 -16 -8 -26 -5 -11 4 -27
1 -35 -6 -8 -6 -17 -9 -21 -6 -3 4 -12 2 -19 -4 -8 -6 -20 -9 -29 -6 -8 4 -17
2 -21 -4 -3 -6 -12 -8 -19 -5 -7 2 -16 2 -20 -2 -4 -4 -11 -8 -16 -8 -5 -1
-11 -3 -14 -4 -3 -1 -8 -3 -12 -5 -5 -1 -16 -5 -25 -9 -9 -4 -25 -9 -35 -11
-10 -2 -19 -4 -20 -5 -2 -2 -6 -3 -10 -5 -28 -7 -173 -81 -230 -116 -37 -23
-76 -42 -85 -41 -10 0 -17 -4 -15 -11 1 -6 -7 -11 -18 -12 -11 0 -20 -5 -20
-11 0 -16 -61 -65 -69 -56 -4 4 -6 2 -5 -3 1 -6 -42 -55 -97 -111 -93 -94
-197 -231 -244 -324 l-20 -40 348 0 c332 0 350 1 366 19 10 11 25 17 34 14 10
-4 13 -2 8 5 -9 14 80 80 172 126 40 20 74 36 77 37 2 0 21 7 40 15 20 8 40
12 45 9 5 -3 12 -1 15 5 4 6 15 8 25 5 10 -3 21 -1 24 4 4 6 13 8 21 4 8 -3
23 -2 32 2 25 10 274 12 280 2 2 -4 13 -5 23 -2 10 3 21 1 25 -5 4 -6 14 -9
22 -6 9 4 22 1 30 -5 7 -7 16 -9 20 -6 3 4 12 2 20 -4 7 -6 13 -8 13 -4 0 4 7
2 15 -5 8 -7 15 -9 15 -6 0 4 10 1 23 -6 12 -6 28 -13 35 -14 45 -8 257 -157
247 -174 -7 -11 707 -15 717 -4 3 3 -5 25 -19 50 -14 24 -26 50 -27 57 -1 6
-10 26 -19 44 -21 39 -98 214 -101 228 -1 6 -10 25 -19 42 -10 18 -17 35 -17
38 0 3 -7 19 -15 35 -8 16 -16 33 -16 37 -1 5 -10 26 -22 48 -11 22 -19 41
-18 43 1 1 -5 15 -13 30 -21 42 -108 236 -110 247 -1 6 -12 28 -23 50 -11 22
-21 43 -22 48 0 4 -8 21 -16 37 -8 16 -15 32 -15 35 0 3 -7 19 -15 35 -8 16
-16 33 -16 37 -1 5 -9 24 -19 43 -10 19 -19 38 -19 42 -1 4 -21 49 -45 100
-50 109 -81 180 -81 188 -1 3 -9 20 -18 37 -10 18 -18 36 -18 40 -1 5 -9 24
-19 43 -10 19 -18 38 -19 43 0 4 -8 21 -16 37 -8 16 -15 31 -14 32 1 2 -8 22
-20 45 -26 52 -102 224 -105 238 -1 6 -12 28 -23 50 -11 22 -21 42 -20 45 0 3
-10 25 -23 50 -13 25 -22 46 -21 48 1 1 -6 16 -14 32 -8 16 -15 32 -15 35 0 3
-11 28 -25 55 -14 28 -22 50 -19 50 4 0 2 6 -4 13 -11 13 -112 233 -116 252
-1 6 -13 30 -26 55 -12 25 -22 46 -21 48 1 1 -6 16 -14 32 -9 17 -13 30 -10
30 3 0 -3 12 -12 27 -10 15 -16 27 -14 28 3 0 0 9 -6 19 -10 18 -12 17 -27
-12z m865 -2407 c37 -20 69 -70 69 -110 0 -63 -63 -125 -127 -125 -39 0 -89
33 -109 71 -30 58 -1 138 59 164 42 19 71 18 108 0z"/>
</g>
</svg>
